<?xml version="1.0" encoding="utf-8"?>
<!-- Generator: Adobe Illustrator 24.0.2, SVG Export Plug-In . SVG Version: 6.00 Build 0)  -->
<svg version="1.1" id="Capa_1" xmlns="http://www.w3.org/2000/svg" xmlns:xlink="http://www.w3.org/1999/xlink" x="0px" y="0px"
	 viewBox="0 0 85.04 85.04" style="enable-background:new 0 0 85.04 85.04;" xml:space="preserve">
<style type="text/css">
	.st0{opacity:0.4;fill:#E3E3E3;}
	.st1{opacity:0.9;}
	.st2{fill:url(#SVGID_1_);}
	.st3{fill:url(#SVGID_2_);}
	.st4{fill:none;stroke:#000000;stroke-miterlimit:10;}
</style>
<g>
	<circle class="st0" cx="34.74" cy="41.78" r="30.86"/>
</g>
<g id="OBJECTS">
</g>
<g class="st1">
	<g>
		<linearGradient id="SVGID_1_" gradientUnits="userSpaceOnUse" x1="9.334" y1="23.126" x2="65.9883" y2="79.7803">
			<stop  offset="0" style="stop-color:#B4379C"/>
			<stop  offset="0.3919" style="stop-color:#3E64AD"/>
			<stop  offset="1" style="stop-color:#0B9288"/>
		</linearGradient>
		<path class="st2" d="M43.1,37.1c1.85-2.62,2.78-5.15,2.78-7.59s-0.8-4.49-2.41-6.13c-1.61-1.64-3.67-2.46-6.18-2.46
			c-4.61,0-8.97,3.28-13.09,9.85l-13.1-7.75c3.42-5.31,7.18-9.32,11.26-12.05c4.08-2.73,9.29-4.09,15.61-4.09s11.87,2.01,16.66,6.02
			c4.78,4.02,7.18,9.48,7.18,16.39c0,3.77-0.96,7.39-2.88,10.84c-1.92,3.46-5.46,7.87-10.63,13.25l-13.2,13.73H64v14.66H12.35V69.62
			l21.47-22C38.16,43.22,41.25,39.71,43.1,37.1z"/>
	</g>
</g>
<linearGradient id="SVGID_2_" gradientUnits="userSpaceOnUse" x1="71.3162" y1="79.403" x2="78.8382" y2="71.881">
	<stop  offset="0" style="stop-color:#824AA3"/>
	<stop  offset="0.3919" style="stop-color:#3E64AD"/>
	<stop  offset="1" style="stop-color:#0B9288"/>
</linearGradient>
<circle class="st3" cx="75.08" cy="75.64" r="5.32"/>
<circle class="st4" cx="77.63" cy="74.36" r="5.32"/>
<g>
	<g>
		<path class="st4" d="M47.1,35.1c1.85-2.62,2.78-5.15,2.78-7.59s-0.8-4.49-2.41-6.13c-1.61-1.64-3.67-2.46-6.18-2.46
			c-4.61,0-8.97,3.28-13.09,9.85l-13.1-7.75c3.42-5.31,7.18-9.32,11.26-12.05c4.08-2.73,9.29-4.09,15.61-4.09s11.87,2.01,16.66,6.02
			c4.78,4.02,7.18,9.48,7.18,16.39c0,3.77-0.96,7.39-2.88,10.84c-1.92,3.46-5.46,7.87-10.63,13.25l-13.2,13.73H68v14.66H16.35V67.62
			l21.47-22C42.16,41.22,45.25,37.71,47.1,35.1z"/>
	</g>
</g>
</svg>
