<?xml version="1.0" encoding="utf-8"?>
<!-- Generator: Adobe Illustrator 25.0.0, SVG Export Plug-In . SVG Version: 6.00 Build 0)  -->
<svg version="1.1" id="Capa_1" xmlns="http://www.w3.org/2000/svg" xmlns:xlink="http://www.w3.org/1999/xlink" x="0px" y="0px"
	 viewBox="0 0 85 85" style="enable-background:new 0 0 85 85;" xml:space="preserve">
<style type="text/css">
	.st0{opacity:0.4;fill:#E3E3E3;enable-background:new    ;}
	.st1{fill:url(#SVGID_1_);}
	.st2{fill:url(#SVGID_2_);}
	.st3{fill:none;stroke:#000000;stroke-miterlimit:10;}
</style>
<g>
	<circle class="st0" cx="34.7" cy="41.8" r="30.9"/>
</g>
<g id="OBJECTS">
</g>
<g>
	<g>
		
			<linearGradient id="SVGID_1_" gradientUnits="userSpaceOnUse" x1="9.3452" y1="64.8665" x2="65.9908" y2="8.2208" gradientTransform="matrix(1 0 0 -1 0 88)">
			<stop  offset="4.571455e-03" style="stop-color:#10312B"/>
			<stop  offset="0.1117" style="stop-color:#163E36"/>
			<stop  offset="0.2982" style="stop-color:#1D4E43"/>
			<stop  offset="0.507" style="stop-color:#22584B"/>
			<stop  offset="0.7823" style="stop-color:#235B4E"/>
		</linearGradient>
		<path class="st1" d="M43.1,37.1c1.8-2.6,2.8-5.1,2.8-7.6s-0.8-4.5-2.4-6.1c-1.6-1.6-3.7-2.5-6.2-2.5c-4.6,0-9,3.3-13.1,9.9
			L11.1,23c3.4-5.3,7.2-9.3,11.3-12.1S31.6,6.9,38,6.9s11.9,2,16.7,6c4.8,4,7.2,9.5,7.2,16.4c0,3.8-1,7.4-2.9,10.8
			C57,43.6,53.5,48,48.3,53.4L35.1,67.1H64v14.7H12.4V69.6l21.5-22C38.2,43.2,41.2,39.7,43.1,37.1z"/>
	</g>
</g>
<linearGradient id="SVGID_2_" gradientUnits="userSpaceOnUse" x1="71.3182" y1="8.5982" x2="78.8418" y2="16.1218" gradientTransform="matrix(1 0 0 -1 0 88)">
	<stop  offset="4.571455e-03" style="stop-color:#10312B"/>
	<stop  offset="0.1117" style="stop-color:#163E36"/>
	<stop  offset="0.2982" style="stop-color:#1D4E43"/>
	<stop  offset="0.507" style="stop-color:#22584B"/>
	<stop  offset="0.7823" style="stop-color:#235B4E"/>
</linearGradient>
<circle class="st2" cx="75.1" cy="75.6" r="5.3"/>
<circle class="st3" cx="77.6" cy="74.4" r="5.3"/>
<g>
	<g>
		<path class="st3" d="M47.1,35.1c1.8-2.6,2.8-5.1,2.8-7.6s-0.8-4.5-2.4-6.1c-1.6-1.6-3.7-2.5-6.2-2.5c-4.6,0-9,3.3-13.1,9.9
			L15.1,21c3.4-5.3,7.2-9.3,11.3-12.1S35.6,4.9,42,4.9s11.9,2,16.7,6c4.8,4,7.2,9.5,7.2,16.4c0,3.8-1,7.4-2.9,10.8
			C61,41.6,57.5,46,52.3,51.4L39.1,65.1H68v14.7H16.4V67.6l21.5-22C42.2,41.2,45.2,37.7,47.1,35.1z"/>
	</g>
</g>
</svg>
