<?xml version="1.0" encoding="utf-8"?>
<!-- Generator: Adobe Illustrator 25.0.0, SVG Export Plug-In . SVG Version: 6.00 Build 0)  -->
<svg version="1.1" id="Capa_1" xmlns="http://www.w3.org/2000/svg" xmlns:xlink="http://www.w3.org/1999/xlink" x="0px" y="0px"
	 viewBox="0 0 158.5 169.9" style="enable-background:new 0 0 158.5 169.9;" xml:space="preserve">
<style type="text/css">
	.st0{opacity:0.9;}
	.st1{fill:url(#SVGID_1_);}
	.st2{fill:#606060;}
	.st3{clip-path:url(#SVGID_4_);}
	.st4{fill:none;stroke:#FFFFFF;stroke-width:0.5;stroke-miterlimit:10;}
</style>
<g id="POST_5">
	<g id="BACKGROUND_1_">
	</g>
	<g id="OBJECTS_1_">
	</g>
	<g id="PHOTOS_1_">
	</g>
	<g id="TEXTS_1_">
	</g>
</g>
<g id="POST_4">
	<g id="BACKGROUND_2_">
	</g>
	<g id="OBJECTS_2_">
	</g>
	<g id="TEXTS_2_">
	</g>
</g>
<g id="POST_3">
	<g id="BACKGROUND_3_">
	</g>
	<g id="OBJECTS_3_">
	</g>
	<g id="TEXTS_3_">
	</g>
</g>
<g id="POST_2">
	<g id="BACKGROUND_4_">
	</g>
	<g id="OBJECTS_4_">
	</g>
	<g id="PHOTOS_2_">
	</g>
	<g id="TEXTS_4_">
	</g>
</g>
<g id="POST_1">
	<g id="OBJECTS">
		<g class="st0">
			
				<image style="overflow:visible;opacity:0.35;enable-background:new    ;" width="600" height="579" xlink:href="C5F625AA6CCECA97.png"  transform="matrix(0.238 0 0 0.238 -1.1348 33.5185)">
			</image>
			<g>
				<g>
					
						<linearGradient id="SVGID_1_" gradientUnits="userSpaceOnUse" x1="-989.7368" y1="-590.2418" x2="-1055.3066" y2="-478.2078" gradientTransform="matrix(-0.869 -0.4949 0.4949 -0.869 -547.4776 -868.88)">
						<stop  offset="0" style="stop-color:#795D8C"/>
						<stop  offset="1" style="stop-color:#658DC0"/>
					</linearGradient>
					<path class="st1" d="M127.3,60.1c4,4.9,6.8,11,6.4,17.3c-0.5,8.7-6.8,15.9-10.3,24c-3.4,7.7-4.1,16.3-5.2,24.7
						s-2.8,17-7.6,23.9c-10,14.4-29,11.8-40.7,1.3c-5.3-4.7-9.8-10.3-15.7-14.2c-11.8-7.8-27.7-8.1-38.9-16.8
						C6.4,113.4,1.8,101.7,3,90.6s8-21.4,17.3-27.4c9-5.8,19.8-7.8,29.2-12.9C59.2,45,67.7,36.5,78.6,35
						c11.6-1.6,22.5,5.2,32.3,11.7c5.6,3.7,11.2,7.5,15.6,12.5C126.8,59.5,127.1,59.8,127.3,60.1z"/>
				</g>
			</g>
		</g>
		<g>
			<g>
				<g>
					<g>
						<path id="SVGID_2_" class="st2" d="M147.7,71.4c3.1-9,5.7-18,4-27.4c-1.8-9.3-8.2-17.1-16.2-22.1C118.1,11,97.2,27,92.9,28.8
							c-8.1,3.5-17.6,3.4-26.3,1.5c-11.4-2.5-19.6,1.1-23.7,9c-5.2,10.2,0.6,15.9-3.4,27.1c-3,8.3-20.8,16.6-11.6,34.8
							c8.6,17.1,27.7,5.4,46.2,15.3c7.4,3.9,21.5,18.2,29.1,21.8c7.6,3.5,16.7,5.1,24.2,1.3s11.6-12.3,13-20.6s0.7-16.8,0.9-25.2
							C141.6,81.4,146,76.2,147.7,71.4z"/>
					</g>
					<g>
						<defs>
							<path id="SVGID_3_" d="M147.7,71.4c3.1-9,5.7-18,4-27.4c-1.8-9.3-8.2-17.1-16.2-22.1C118.1,11,97.2,27,92.9,28.8
								c-8.1,3.5-17.6,3.4-26.3,1.5c-11.4-2.5-19.6,1.1-23.7,9c-5.2,10.2,0.6,15.9-3.4,27.1c-3,8.3-20.8,16.6-11.6,34.8
								c8.6,17.1,27.7,5.4,46.2,15.3c7.4,3.9,21.5,18.2,29.1,21.8c7.6,3.5,16.7,5.1,24.2,1.3s11.6-12.3,13-20.6s0.7-16.8,0.9-25.2
								C141.6,81.4,146,76.2,147.7,71.4z"/>
						</defs>
						<clipPath id="SVGID_4_">
							<use xlink:href="#SVGID_3_"  style="overflow:visible;"/>
						</clipPath>
						<g id="MBD3gJ_1_" class="st3">
							
								<image style="overflow:visible;enable-background:new    ;" width="1285" height="854" id="MBD3gJ_2_" xlink:href="C5F625AA6CCECA95.jpg"  transform="matrix(0.1302 0 0 0.1302 25.1995 30.4396)">
							</image>
						</g>
					</g>
				</g>
			</g>
		</g>
		<g>
			<path class="st4" d="M71.7,126.4c-6.3-0.8-12.5-3.3-16.5-8.2c-5.6-6.7-6-16.2-9-24.4c-2.9-7.9-8.3-14.7-13.2-21.5
				s-9.7-14.2-10.9-22.6c-2.6-17.3,12.9-28.5,28.6-29c7.1-0.2,14.2,0.7,21.2-0.5c14-2.5,25.6-13.2,39.8-14.6
				c11.1-1.1,22.5,4.3,29.3,13.1c6.8,8.9,9,20.9,6.3,31.8c-2.5,10.4-9,19.3-12.3,29.5c-3.4,10.5-3.6,22.5-10.5,31.1
				c-7.3,9.2-19.9,11.8-31.5,13.8c-6.6,1.1-13.3,2.3-20,1.7C72.5,126.4,72.1,126.4,71.7,126.4z"/>
		</g>
	</g>
	<g id="BACKGROUND">
	</g>
	<g id="PHOTOS">
	</g>
	<g id="TEXTS">
	</g>
</g>
</svg>
