<?xml version="1.0" encoding="utf-8"?>
<!-- Generator: Adobe Illustrator 24.0.2, SVG Export Plug-In . SVG Version: 6.00 Build 0)  -->
<svg version="1.1" id="Capa_1" xmlns="http://www.w3.org/2000/svg" xmlns:xlink="http://www.w3.org/1999/xlink" x="0px" y="0px"
	 viewBox="0 0 1190.8 485.1" style="enable-background:new 0 0 1190.8 485.1;" xml:space="preserve">
<style type="text/css">
	.st0{opacity:0.7;fill:url(#SVGID_1_);}
	.st1{fill:#774C93;}
	.st2{fill:url(#SVGID_2_);}
	.st3{fill:url(#SVGID_3_);}
	.st4{fill:url(#SVGID_4_);}
	.st5{fill:url(#SVGID_5_);}
	.st6{fill:url(#SVGID_6_);}
	.st7{fill:url(#SVGID_7_);}
	.st8{fill:url(#SVGID_8_);}
	.st9{fill:url(#SVGID_9_);}
	.st10{fill:url(#SVGID_10_);}
	.st11{fill:url(#SVGID_11_);}
	.st12{fill:url(#SVGID_12_);}
	.st13{fill:url(#SVGID_13_);}
	.st14{fill:url(#SVGID_14_);}
	.st15{fill:url(#SVGID_15_);}
	.st16{fill:#6089B7;}
	.st17{fill:url(#SVGID_16_);}
	.st18{fill:url(#SVGID_17_);}
	.st19{font-family:'LibreBaskerville-Regular';}
	.st20{font-size:69.9408px;}
	.st21{letter-spacing:13;}
</style>
<g>
	
		<radialGradient id="SVGID_1_" cx="567.6354" cy="285.5127" r="460.8917" fx="569.5963" fy="528.001" gradientTransform="matrix(0.9214 0 0 0.2768 51.6686 207.8081)" gradientUnits="userSpaceOnUse">
		<stop  offset="0" style="stop-color:#1B1F1F"/>
		<stop  offset="0.9877" style="stop-color:#1B1F1F;stop-opacity:0"/>
	</radialGradient>
	<ellipse class="st0" cx="574.7" cy="286.8" rx="422.9" ry="126.8"/>
	<g>
		<path class="st1" d="M1018.7,250.3L606.9,362l-11.5-223.6l269.1-85.2c2.6-0.8,5.4,0.1,7,2.2L1018.7,250.3z"/>
		<path class="st1" d="M132.3,250.3L544,362l11.5-223.6L286.5,53.2c-2.6-0.8-5.4,0.1-7,2.2L132.3,250.3z"/>
		<path class="st1" d="M132.3,250.3c-2.4,3.2-2.4,6.1-1.8,8.2c0.6,2,2.3,3.5,4.3,4L544,373.6V362L132.3,250.3z"/>
		<path class="st1" d="M1018.7,250.3c2.2,2.9,2.4,5.6,2,7.6c-0.5,2.3-2.3,4-4.5,4.6L606.9,373.6V362L1018.7,250.3z"/>
		<linearGradient id="SVGID_2_" gradientUnits="userSpaceOnUse" x1="200.0487" y1="253.0722" x2="653.6733" y2="253.0722">
			<stop  offset="0" style="stop-color:#004E4E"/>
			<stop  offset="0.1349" style="stop-color:#0E4F52"/>
			<stop  offset="0.3299" style="stop-color:#25535E"/>
			<stop  offset="0.5614" style="stop-color:#415571"/>
			<stop  offset="0.8189" style="stop-color:#635288"/>
			<stop  offset="0.9548" style="stop-color:#774C93"/>
		</linearGradient>
		<path class="st2" d="M555.6,138.4c0,2.6,8.9,4.8,19.9,4.8s19.9-2.1,19.9-4.8L606.9,362c0,3.2-14.1,5.7-31.5,5.7S544,365.2,544,362
			L555.6,138.4z"/>
		<path class="st1" d="M544,362c0,3.2,14.1,5.7,31.5,5.7s31.5-2.6,31.5-5.7v11.5c0,3.2-14.1,5.7-31.5,5.7s-31.5-2.6-31.5-5.7V362z"
			/>
	</g>
	<g>
		<g>
			<linearGradient id="SVGID_3_" gradientUnits="userSpaceOnUse" x1="-1664.9807" y1="206.779" x2="1303.524" y2="206.779">
				<stop  offset="0" style="stop-color:#EFEFEF"/>
				<stop  offset="0.177" style="stop-color:#ECEAED"/>
				<stop  offset="0.4328" style="stop-color:#E4DAE7"/>
				<stop  offset="0.735" style="stop-color:#D6C1DD"/>
				<stop  offset="0.9548" style="stop-color:#CBABD1"/>
			</linearGradient>
			<polygon class="st3" points="586,141.4 590.4,358.7 997.6,250.3 859.3,54.8 			"/>
			<linearGradient id="SVGID_4_" gradientUnits="userSpaceOnUse" x1="1113.7438" y1="169.83" x2="564.7559" y2="370.1837">
				<stop  offset="0" style="stop-color:#EFEFEF"/>
				<stop  offset="0.1956" style="stop-color:#E6DFE9"/>
				<stop  offset="0.7015" style="stop-color:#D3BAD9"/>
				<stop  offset="0.9548" style="stop-color:#CBABD1"/>
			</linearGradient>
			<path class="st4" d="M590.4,358.7l-15-12.7c0,0,31.5-43.7,150.9-65.1c150.4-26.9,271.2-53.4,271.2-53.4v22.7L590.4,358.7z"/>
			<linearGradient id="SVGID_5_" gradientUnits="userSpaceOnUse" x1="1169.9802" y1="-30.5687" x2="470.3002" y2="350.6605">
				<stop  offset="0" style="stop-color:#EFEFEF"/>
				<stop  offset="0.1635" style="stop-color:#E6DFE9"/>
				<stop  offset="0.5004" style="stop-color:#D7C3DD"/>
				<stop  offset="0.7763" style="stop-color:#CFB1D5"/>
				<stop  offset="0.9548" style="stop-color:#CBABD1"/>
			</linearGradient>
			<path class="st5" d="M997.6,227.6c0,0-120.8,26.5-271.2,53.4c-119.5,21.3-150.9,65.1-150.9,65.1V138.4c0,0,30.7-46.4,150.9-65.1
				c110.2-17.1,132.8-28.5,132.8-28.5L997.6,227.6z"/>
			<linearGradient id="SVGID_6_" gradientUnits="userSpaceOnUse" x1="1374.9172" y1="9.9121" x2="792.4305" y2="278.2228">
				<stop  offset="0" style="stop-color:#EFEFEF"/>
				<stop  offset="0.3714" style="stop-color:#E2D7E6"/>
				<stop  offset="0.9548" style="stop-color:#CBABD1"/>
			</linearGradient>
			<path class="st6" d="M997.6,227.6c0,0-348.3,79.4-422.1,118.5c0,0,31.5-43.7,150.9-65.1C876.8,254.1,997.6,227.6,997.6,227.6z"/>
			<linearGradient id="SVGID_7_" gradientUnits="userSpaceOnUse" x1="413.3368" y1="265.1527" x2="1085.0486" y2="65.8281">
				<stop  offset="0.1728" style="stop-color:#CBABD1"/>
				<stop  offset="0.2176" style="stop-color:#D5BEDB"/>
				<stop  offset="0.2931" style="stop-color:#E3D9E7"/>
				<stop  offset="0.3558" style="stop-color:#ECE9ED"/>
				<stop  offset="0.3976" style="stop-color:#EFEFEF"/>
				<stop  offset="0.5526" style="stop-color:#EEEDEE"/>
				<stop  offset="0.6651" style="stop-color:#EAE5EB"/>
				<stop  offset="0.7641" style="stop-color:#E3D9E7"/>
				<stop  offset="0.8553" style="stop-color:#D9C7DF"/>
				<stop  offset="0.9405" style="stop-color:#CEAFD4"/>
				<stop  offset="0.9548" style="stop-color:#CBABD1"/>
			</linearGradient>
			<path class="st7" d="M575.5,138.4c5.1-62.9,62.9-73.2,112.5-75.1c49.6-1.9,125.9-36.6,125.9-36.6l153,180.2
				c0,0-23.9,43.3-159.9,46.2c-114.5,2.4-197.7,27.1-231.6,93V138.4z"/>
		</g>
		<g>
			
				<linearGradient id="SVGID_8_" gradientUnits="userSpaceOnUse" x1="-1488.3578" y1="206.779" x2="1480.1471" y2="206.779" gradientTransform="matrix(-1 0 0 1 1327.5664 0)">
				<stop  offset="0" style="stop-color:#EFEFEF"/>
				<stop  offset="0.177" style="stop-color:#ECEAED"/>
				<stop  offset="0.4328" style="stop-color:#E4DAE7"/>
				<stop  offset="0.735" style="stop-color:#D6C1DD"/>
				<stop  offset="0.9548" style="stop-color:#CBABD1"/>
			</linearGradient>
			<polygon class="st8" points="565,141.4 560.5,358.7 153.4,250.3 291.7,54.8 			"/>
			
				<linearGradient id="SVGID_9_" gradientUnits="userSpaceOnUse" x1="1205.8251" y1="200.6836" x2="656.8371" y2="401.0373" gradientTransform="matrix(-1 0 0 1 1327.5664 0)">
				<stop  offset="0" style="stop-color:#EFEFEF"/>
				<stop  offset="0.1956" style="stop-color:#E6DFE9"/>
				<stop  offset="0.7015" style="stop-color:#D3BAD9"/>
				<stop  offset="0.9548" style="stop-color:#CBABD1"/>
			</linearGradient>
			<path class="st9" d="M560.5,358.7l15-12.7c0,0-31.5-43.7-150.9-65.1c-150.4-26.9-271.2-53.4-271.2-53.4v22.7L560.5,358.7z"/>
			
				<linearGradient id="SVGID_10_" gradientUnits="userSpaceOnUse" x1="1346.6033" y1="-30.5687" x2="646.9232" y2="350.6606" gradientTransform="matrix(-1 0 0 1 1327.5664 0)">
				<stop  offset="0" style="stop-color:#EFEFEF"/>
				<stop  offset="0.1635" style="stop-color:#E6DFE9"/>
				<stop  offset="0.5004" style="stop-color:#D7C3DD"/>
				<stop  offset="0.7763" style="stop-color:#CFB1D5"/>
				<stop  offset="0.9548" style="stop-color:#CBABD1"/>
			</linearGradient>
			<path class="st10" d="M153.4,227.6c0,0,120.8,26.5,271.2,53.4c119.5,21.3,150.9,65.1,150.9,65.1V138.4c0,0-30.7-46.4-150.9-65.1
				C314.3,56.2,291.7,44.8,291.7,44.8L153.4,227.6z"/>
			
				<linearGradient id="SVGID_11_" gradientUnits="userSpaceOnUse" x1="1551.5404" y1="9.9121" x2="969.0536" y2="278.2228" gradientTransform="matrix(-1 0 0 1 1327.5664 0)">
				<stop  offset="0" style="stop-color:#EFEFEF"/>
				<stop  offset="0.3714" style="stop-color:#E2D7E6"/>
				<stop  offset="0.9548" style="stop-color:#CBABD1"/>
			</linearGradient>
			<path class="st11" d="M153.4,227.6c0,0,348.3,79.4,422.1,118.5c0,0-31.5-43.7-150.9-65.1C274.1,254.1,153.4,227.6,153.4,227.6z"
				/>
			
				<linearGradient id="SVGID_12_" gradientUnits="userSpaceOnUse" x1="589.9598" y1="265.1528" x2="1261.6716" y2="65.8281" gradientTransform="matrix(-1 0 0 1 1327.5664 0)">
				<stop  offset="0.1728" style="stop-color:#CBABD1"/>
				<stop  offset="0.2176" style="stop-color:#D5BEDB"/>
				<stop  offset="0.2931" style="stop-color:#E3D9E7"/>
				<stop  offset="0.3558" style="stop-color:#ECE9ED"/>
				<stop  offset="0.3976" style="stop-color:#EFEFEF"/>
				<stop  offset="0.5526" style="stop-color:#EEEDEE"/>
				<stop  offset="0.6651" style="stop-color:#EAE5EB"/>
				<stop  offset="0.7641" style="stop-color:#E3D9E7"/>
				<stop  offset="0.8553" style="stop-color:#D9C7DF"/>
				<stop  offset="0.9405" style="stop-color:#CEAFD4"/>
				<stop  offset="0.9548" style="stop-color:#CBABD1"/>
			</linearGradient>
			<path class="st12" d="M575.5,138.4c-5.1-62.9-62.9-73.2-112.5-75.1S337.1,26.7,337.1,26.7L184,206.9c0,0,23.9,43.3,159.9,46.2
				c114.5,2.4,197.7,27.1,231.6,93V138.4z"/>
			<linearGradient id="SVGID_13_" gradientUnits="userSpaceOnUse" x1="504.1265" y1="214.7496" x2="610.041" y2="213.9241">
				<stop  offset="0.3791" style="stop-color:#FFFFFF"/>
				<stop  offset="0.4792" style="stop-color:#FEFDFE"/>
				<stop  offset="0.5462" style="stop-color:#F9F5FB"/>
				<stop  offset="0.6035" style="stop-color:#F0E8F4"/>
				<stop  offset="0.6553" style="stop-color:#E5D6EB"/>
				<stop  offset="0.7031" style="stop-color:#D7BEDD"/>
				<stop  offset="0.7344" style="stop-color:#CBABD1"/>
			</linearGradient>
			<path class="st13" d="M575.5,346.1V138.4c0,0,0-37.1-31.5-55.8l-46.9,196C497.1,278.6,547.6,293.2,575.5,346.1z"/>
		</g>
	</g>
</g>
<g>
	<g>
		
			<image style="overflow:visible;opacity:0.2;" width="237" height="118" xlink:href="5EC240077F5A6C91.png"  transform="matrix(1 0 0 1 115.0873 71.2241)">
		</image>
		<g>
			<g>
				<linearGradient id="SVGID_14_" gradientUnits="userSpaceOnUse" x1="229.8086" y1="-4.5652" x2="229.8086" y2="379.5418">
					<stop  offset="0" style="stop-color:#EFEFEF"/>
					<stop  offset="0.1956" style="stop-color:#E6DFE9"/>
					<stop  offset="0.7015" style="stop-color:#D3BAD9"/>
					<stop  offset="0.9548" style="stop-color:#CBABD1"/>
				</linearGradient>
				<path class="st14" d="M338.8,122.9l-7.8-4.5c-6.8-4-11.1-11.3-11.1-19.2v-8.1c0-7.6-6.1-13.7-13.7-13.7H134.5
					c-7.6,0-13.7,6.1-13.7,13.7v63.5c0,7.6,6.1,13.7,13.7,13.7h171.7c7.6,0,13.7-6.1,13.7-13.7v-8.1c0-7.9,4.2-15.2,11.1-19.2
					L338.8,122.9z"/>
				<linearGradient id="SVGID_15_" gradientUnits="userSpaceOnUse" x1="514.6224" y1="149.9062" x2="59.9923" y2="149.9062">
					<stop  offset="0.1612" style="stop-color:#004E4E"/>
					<stop  offset="0.4032" style="stop-color:#235F6A"/>
					<stop  offset="0.8882" style="stop-color:#6089B7"/>
				</linearGradient>
				<path class="st15" d="M338.8,131.5L331,136c-6.8,4-11.1,11.3-11.1,19.2v8.1c0,7.6-6.1,13.7-13.7,13.7H134.5
					c-7.6,0-13.7-6.1-13.7-13.7v-8.6c0,7.6,6.1,13.7,13.7,13.7h171.7c7.6,0,13.7-6.1,13.7-13.7v-8.1c0-7.9,4.2-15.2,11.1-19.2
					l7.8-4.5V131.5z"/>
				<g>
					<g>
						<path class="st16" d="M236.6,104.6h-91c-2,0-3.7-1.6-3.7-3.7l0,0c0-2,1.6-3.7,3.7-3.7h91c2,0,3.7,1.6,3.7,3.7l0,0
							C240.2,103,238.6,104.6,236.6,104.6z"/>
						<path class="st16" d="M236.6,119.2h-91c-2,0-3.7-1.6-3.7-3.7l0,0c0-2,1.6-3.7,3.7-3.7h91c2,0,3.7,1.6,3.7,3.7l0,0
							C240.2,117.6,238.6,119.2,236.6,119.2z"/>
						<path class="st16" d="M236.6,133.8h-91c-2,0-3.7-1.6-3.7-3.7l0,0c0-2,1.6-3.7,3.7-3.7h91c2,0,3.7,1.6,3.7,3.7l0,0
							C240.2,132.2,238.6,133.8,236.6,133.8z"/>
						<path class="st16" d="M195.4,148.4h-49.8c-2,0-3.7-1.6-3.7-3.7l0,0c0-2,1.6-3.7,3.7-3.7h49.8c2,0,3.7,1.6,3.7,3.7l0,0
							C199.1,146.8,197.4,148.4,195.4,148.4z"/>
					</g>
					<circle class="st16" cx="275.7" cy="122.9" r="27.1"/>
				</g>
			</g>
		</g>
	</g>
	<g>
		
			<image style="overflow:visible;opacity:0.2;" width="237" height="118" xlink:href="5EC240077F5A6C97.png"  transform="matrix(1 0 0 1 807 71)">
		</image>
		<g>
			<g>
				
					<linearGradient id="SVGID_16_" gradientUnits="userSpaceOnUse" x1="394.1526" y1="-4.5652" x2="394.1526" y2="379.5418" gradientTransform="matrix(-1 0 0 1 1315.2875 0)">
					<stop  offset="0" style="stop-color:#EFEFEF"/>
					<stop  offset="0.1956" style="stop-color:#E6DFE9"/>
					<stop  offset="0.7015" style="stop-color:#D3BAD9"/>
					<stop  offset="0.9548" style="stop-color:#CBABD1"/>
				</linearGradient>
				<path class="st17" d="M812.1,122.9l7.8-4.5c6.8-4,11.1-11.3,11.1-19.2v-8.1c0-7.6,6.1-13.7,13.7-13.7h171.7
					c7.6,0,13.7,6.1,13.7,13.7v63.5c0,7.6-6.1,13.7-13.7,13.7H844.7c-7.6,0-13.7-6.1-13.7-13.7v-8.1c0-7.9-4.2-15.2-11.1-19.2
					L812.1,122.9z"/>
				
					<linearGradient id="SVGID_17_" gradientUnits="userSpaceOnUse" x1="678.9664" y1="149.9062" x2="224.3363" y2="149.9062" gradientTransform="matrix(-1 0 0 1 1315.2875 0)">
					<stop  offset="0.1612" style="stop-color:#004E4E"/>
					<stop  offset="0.4032" style="stop-color:#235F6A"/>
					<stop  offset="0.8882" style="stop-color:#6089B7"/>
				</linearGradient>
				<path class="st18" d="M812.1,131.5l7.8,4.5c6.8,4,11.1,11.3,11.1,19.2v8.1c0,7.6,6.1,13.7,13.7,13.7h171.7
					c7.6,0,13.7-6.1,13.7-13.7v-8.6c0,7.6-6.1,13.7-13.7,13.7H844.7c-7.6,0-13.7-6.1-13.7-13.7v-8.1c0-7.9-4.2-15.2-11.1-19.2
					l-7.8-4.5V131.5z"/>
				<g>
					<g>
						<path class="st16" d="M942.9,104.6h-91c-2,0-3.7-1.6-3.7-3.7l0,0c0-2,1.6-3.7,3.7-3.7h91c2,0,3.7,1.6,3.7,3.7l0,0
							C946.6,103,944.9,104.6,942.9,104.6z"/>
						<path class="st16" d="M942.9,119.2h-91c-2,0-3.7-1.6-3.7-3.7l0,0c0-2,1.6-3.7,3.7-3.7h91c2,0,3.7,1.6,3.7,3.7l0,0
							C946.6,117.6,944.9,119.2,942.9,119.2z"/>
						<path class="st16" d="M942.9,133.8h-91c-2,0-3.7-1.6-3.7-3.7l0,0c0-2,1.6-3.7,3.7-3.7h91c2,0,3.7,1.6,3.7,3.7l0,0
							C946.6,132.2,944.9,133.8,942.9,133.8z"/>
						<path class="st16" d="M901.7,148.4h-49.8c-2,0-3.7-1.6-3.7-3.7l0,0c0-2,1.6-3.7,3.7-3.7h49.8c2,0,3.7,1.6,3.7,3.7l0,0
							C905.4,146.8,903.7,148.4,901.7,148.4z"/>
					</g>
					<text transform="matrix(1 0 0 1 959.6715 150.1722)" class="st16 st19 st20 st21">A</text>
				</g>
			</g>
		</g>
	</g>
</g>
</svg>
